<?xml version="1.0" standalone="no"?><!DOCTYPE svg PUBLIC "-//W3C//DTD SVG 1.1//EN" "http://www.w3.org/Graphics/SVG/1.1/DTD/svg11.dtd"><svg t="1651829446125" class="icon" viewBox="0 0 1160 1024" version="1.1" xmlns="http://www.w3.org/2000/svg" p-id="20804" xmlns:xlink="http://www.w3.org/1999/xlink" width="226.5625" height="200"><defs><style type="text/css">@font-face { font-family: feedback-iconfont; src: url("//at.alicdn.com/t/font_1031158_u69w8yhxdu.woff2?t=1630033759944") format("woff2"), url("//at.alicdn.com/t/font_1031158_u69w8yhxdu.woff?t=1630033759944") format("woff"), url("//at.alicdn.com/t/font_1031158_u69w8yhxdu.ttf?t=1630033759944") format("truetype"); }
</style></defs><path d="M580.247805 797.000345l167.752392 113.497026H412.501015l167.74679-113.497026z" fill="#FF8E03" p-id="20805"></path><path d="M580.247805 797.000345l-0.022411 113.497026H412.501015l167.74679-113.497026z" fill="#FFAB03" p-id="20806"></path><path d="M580.247805 1024l167.752392-113.502629H412.501015l167.74679 113.502629z" fill="#FF8E03" p-id="20807"></path><path d="M580.247805 1024l-0.022411-113.502629H412.501015l167.74679 113.502629z" fill="#FFAB03" p-id="20808"></path><path d="M447.15296 188.162584a188.162584 134.01927 90 1 0 268.03854 0 188.162584 134.01927 90 1 0-268.03854 0Z" fill="#FF4040" p-id="20809"></path><path d="M350.894951 322.924967a187.960891 105.625404 45 1 0 149.37688-149.376879 187.960891 105.625404 45 1 0-149.37688 149.376879Z" fill="#FF4040" p-id="20810"></path><path d="M601.504868 381.140262a105.625404 187.960891 45 1 0 265.816842-265.816841 105.625404 187.960891 45 1 0-265.816842 265.816841Z" fill="#FF4040" p-id="20811"></path><path d="M374.044919 318.685845a206.421386 90.44802 0 1 0 412.842772 0 206.421386 90.44802 0 1 0-412.842772 0Z" fill="#FF4040" p-id="20812"></path><path d="M862.001455 570.997948a26.500194 26.248078 90 1 0 52.496157 0 26.500194 26.248078 90 1 0-52.496157 0Z" fill="#FFFFFF" p-id="20813"></path><path d="M580.001291 799.947301c-59.583418 74.979302-151.560942 123.055025-254.766032 123.055024C145.611004 923.002325 0 777.380116 0 597.750259s145.611004-325.252067 325.235259-325.252067c103.20509 0 195.182614 48.075722 254.766032 123.055024 59.577815-74.979302 151.555339-123.055025 254.78284-123.055024 179.618653 0 325.229656 145.622209 325.229657 325.252067s-145.611004 325.252067-325.229657 325.252066c-103.227501 0-195.205025-48.075722-254.78284-123.055024z" fill="#FFC003" p-id="20814"></path><path d="M325.49858 597.498143m-245.000738 0a245.000739 245.000739 0 1 0 490.001477 0 245.000739 245.000739 0 1 0-490.001477 0Z" fill="#FFFFFF" p-id="20815"></path><path d="M834.4984 597.498143m-245.000739 0a245.000739 245.000739 0 1 0 490.001477 0 245.000739 245.000739 0 1 0-490.001477 0Z" fill="#FFFFFF" p-id="20816"></path><path d="M345.247668 649.747786m-150.748568 0a150.748568 150.748568 0 1 0 301.497136 0 150.748568 150.748568 0 1 0-301.497136 0Z" fill="#323333" p-id="20817"></path><path d="M259.673891 615.286328m-34.231752 0a34.231752 34.231752 0 1 0 68.463504 0 34.231752 34.231752 0 1 0-68.463504 0Z" fill="#FFFFFF" p-id="20818"></path><path d="M266.004804 681.167043m-12.426518 0a12.426518 12.426518 0 1 0 24.853036 0 12.426518 12.426518 0 1 0-24.853036 0Z" fill="#FFFFFF" p-id="20819"></path><path d="M281.949741 570.504921m-4.45405 0a4.45405 4.45405 0 1 0 8.908099 0 4.45405 4.45405 0 1 0-8.908099 0Z" fill="#FFFFFF" p-id="20820"></path><path d="M814.749312 649.747786m-150.748568 0a150.748568 150.748568 0 1 0 301.497136 0 150.748568 150.748568 0 1 0-301.497136 0Z" fill="#323333" p-id="20821"></path><path d="M731.988029 613.409464m-34.231752 0a34.231752 34.231752 0 1 0 68.463504 0 34.231752 34.231752 0 1 0-68.463504 0Z" fill="#FFFFFF" p-id="20822"></path><path d="M751.216077 678.119241m-15.003704 0a15.003704 15.003704 0 1 0 30.007408 0 15.003704 15.003704 0 1 0-30.007408 0Z" fill="#FFFFFF" p-id="20823"></path><path d="M764.107609 568.163044m-4.45405 0a4.45405 4.45405 0 1 0 8.908099 0 4.45405 4.45405 0 1 0-8.908099 0Z" fill="#FFFFFF" p-id="20824"></path></svg>