<?xml version="1.0" standalone="no"?><!DOCTYPE svg PUBLIC "-//W3C//DTD SVG 1.1//EN" "http://www.w3.org/Graphics/SVG/1.1/DTD/svg11.dtd"><svg t="1651811734410" class="icon" viewBox="0 0 1024 1024" version="1.1" xmlns="http://www.w3.org/2000/svg" p-id="17146" xmlns:xlink="http://www.w3.org/1999/xlink" width="200" height="200"><defs><style type="text/css">@font-face { font-family: feedback-iconfont; src: url("//at.alicdn.com/t/font_1031158_u69w8yhxdu.woff2?t=1630033759944") format("woff2"), url("//at.alicdn.com/t/font_1031158_u69w8yhxdu.woff?t=1630033759944") format("woff"), url("//at.alicdn.com/t/font_1031158_u69w8yhxdu.ttf?t=1630033759944") format("truetype"); }
</style></defs><path d="M348.823065 536.068195S377.619054 9.740406 492.803008 0.14241 686.37593 468.877222 665.578939 593.660172l-95.986962 211.169916H454.408023L348.823065 536.068195z" fill="#FEFCAF" p-id="17147"></path><path d="M396.816046 134.524356a28.795988 28.795988 0 1 0 57.591977 0 28.795988 28.795988 0 1 0-57.591977 0z" fill="#E1B633" p-id="17148"></path><path d="M374.420055 192.116333a31.995987 31.995987 0 1 0 63.989974 0 31.995987 31.995987 0 1 0-63.989974 0z" fill="#E1B633" p-id="17149"></path><path d="M361.62006 259.306306a35.194986 35.194986 0 1 0 70.390972 0 35.194986 35.194986 0 1 0-70.389972 0z" fill="#E1B633" p-id="17150"></path><path d="M352.022064 324.89728a35.194986 35.194986 0 1 0 70.389972 0 35.194986 35.194986 0 1 0-70.389972 0z" fill="#E1B633" p-id="17151"></path><path d="M342.424068 392.088253a35.194986 35.194986 0 1 0 70.389972 0 35.194986 35.194986 0 1 0-70.389972 0z" fill="#E1B633" p-id="17152"></path><path d="M332.825072 459.279226a35.194986 35.194986 0 1 0 70.389972 0 35.194986 35.194986 0 1 0-70.389972 0z" fill="#E1B633" p-id="17153"></path><path d="M454.408023 144.122352a28.795988 28.795988 0 1 0 57.591977 0 28.795988 28.795988 0 1 0-57.591977 0z" fill="#FFDA3C" p-id="17154"></path><path d="M432.011032 201.714329a31.995987 31.995987 0 1 0 63.990974 0 31.995987 31.995987 0 1 0-63.989974 0z" fill="#FFDA3C" p-id="17155"></path><path d="M419.213037 268.905302a35.194986 35.194986 0 1 0 70.389972 0 35.194986 35.194986 0 1 0-70.389972 0z" fill="#FFDA3C" p-id="17156"></path><path d="M409.614041 334.496276a35.194986 35.194986 0 1 0 70.389972 0 35.194986 35.194986 0 1 0-70.389972 0z" fill="#FFDA3C" p-id="17157"></path><path d="M400.016045 401.687249a35.194986 35.194986 0 1 0 70.389972 0 35.194986 35.194986 0 1 0-70.389972 0z" fill="#FFDA3C" p-id="17158"></path><path d="M390.417049 468.877222a35.194986 35.194986 0 1 0 70.389971 0 35.194986 35.194986 0 1 0-70.389971 0z" fill="#FFDA3C" p-id="17159"></path><path d="M564.792979 134.524356a28.795988 28.795988 0 1 0 57.591977 0 28.795988 28.795988 0 1 0-57.591977 0z" fill="#E1B633" p-id="17160"></path><path d="M580.789972 192.116333a31.995987 31.995987 0 1 0 63.991975 0 31.995987 31.995987 0 1 0-63.991975 0z" fill="#E1B633" p-id="17161"></path><path d="M587.18997 259.306306a35.194986 35.194986 0 1 0 70.389972 0 35.194986 35.194986 0 1 0-70.389972 0z" fill="#E1B633" p-id="17162"></path><path d="M596.787966 324.89728a35.194986 35.194986 0 1 0 70.389972 0 35.194986 35.194986 0 1 0-70.389972 0z" fill="#E1B633" p-id="17163"></path><path d="M606.386962 392.088253a35.194986 35.194986 0 1 0 70.389972 0 35.194986 35.194986 0 1 0-70.389972 0z" fill="#E1B633" p-id="17164"></path><path d="M615.985958 459.279226a35.194986 35.194986 0 1 0 70.389972 0 35.194986 35.194986 0 1 0-70.389972 0z" fill="#E1B633" p-id="17165"></path><path d="M505.600003 144.122352a28.795988 28.795988 0 1 0 57.592977 0 28.795988 28.795988 0 1 0-57.591977 0z" fill="#FFDA3C" p-id="17166"></path><path d="M521.598996 201.714329a31.995987 31.995987 0 1 0 63.989975 0 31.995987 31.995987 0 1 0-63.989975 0z" fill="#FFDA3C" p-id="17167"></path><path d="M529.597993 268.905302a35.194986 35.194986 0 1 0 70.389972 0 35.194986 35.194986 0 1 0-70.389972 0z" fill="#FFDA3C" p-id="17168"></path><path d="M539.195989 334.496276a35.194986 35.194986 0 1 0 70.389972 0 35.194986 35.194986 0 1 0-70.389972 0z" fill="#FFDA3C" p-id="17169"></path><path d="M548.794985 401.687249a35.194986 35.194986 0 1 0 70.389972 0 35.194986 35.194986 0 1 0-70.389972 0z" fill="#FFDA3C" p-id="17170"></path><path d="M558.393981 468.877222a35.194986 35.194986 0 1 0 70.389972 0 35.194986 35.194986 0 1 0-70.389972 0zM451.208024 468.877222a35.194986 35.194986 0 1 0 70.389972 0 35.194986 35.194986 0 1 0-70.389972 0z" fill="#FFDA3C" p-id="17171"></path><path d="M508.800001 468.877222a35.194986 35.194986 0 1 0 70.389972 0 35.194986 35.194986 0 1 0-70.389972 0zM449.609025 401.687249a35.194986 35.194986 0 1 0 70.389972 0 35.194986 35.194986 0 1 0-70.389972 0z" fill="#FFDA3C" p-id="17172"></path><path d="M507.200002 401.687249a35.194986 35.194986 0 1 0 70.389972 0 35.194986 35.194986 0 1 0-70.389972 0zM451.208024 536.068195a35.194986 35.194986 0 1 0 70.389972 0 35.194986 35.194986 0 1 0-70.389972 0z" fill="#FFDA3C" p-id="17173"></path><path d="M508.800001 536.068195a35.194986 35.194986 0 1 0 70.389972 0 35.194986 35.194986 0 1 0-70.389972 0zM451.208024 603.259168a35.194986 35.194986 0 1 0 70.389972 0 35.194986 35.194986 0 1 0-70.389972 0z" fill="#FFDA3C" p-id="17174"></path><path d="M508.800001 603.259168a35.194986 35.194986 0 1 0 70.389972 0 35.194986 35.194986 0 1 0-70.389972 0zM484.804011 288.102295a28.795988 28.795988 0 1 0 57.591977 0 28.795988 28.795988 0 1 0-57.591977 0z" fill="#FFDA3C" p-id="17175"></path><path d="M484.804011 344.095272a28.795988 28.795988 0 1 0 57.591977 0 28.795988 28.795988 0 1 0-57.591977 0zM484.804011 220.912322a28.795988 28.795988 0 1 0 57.591977 0 28.795988 28.795988 0 1 0-57.591977 0z" fill="#FFDA3C" p-id="17176"></path><path d="M468.806017 942.411033a81.588967 43.193983 90 1 0 86.387966 0 81.588967 43.193983 90 1 0-86.387966 0z" fill="#2F7F38" p-id="17177"></path><path d="M863.950859 401.687249c-191.972923-76.789969-481.532807 201.571919-318.355872 564.720774 76.789969 0 183.974926-220.769912 153.578938-382.346847-27.195989-163.176935 135.980946-182.373927 164.776934-182.373927z" fill="#609D3E" p-id="17178"></path><path d="M160.049141 401.687249c191.972923-76.789969 481.532807 201.571919 318.355872 564.720774-76.789969 0-183.974926-220.769912-153.578938-382.346847S188.845129 401.687249 160.049141 401.687249z" fill="#72AB44" p-id="17179"></path></svg>